<svg xmlns="http://www.w3.org/2000/svg" data-fa-i2svg="" aria-hidden="true" viewBox="0 0 576 512" data-icon="vr-cardboard" data-prefix="fas" class="svg-inline--fa fa-vr-cardboard duration-300 group-hover:text-dark text-2xl text-primary transition-all"><path d="M512 96L64 96C28.7 96 0 124.7 0 160L0 352c0 35.3 28.7 64 64 64l117.5 0c17 0 33.3-6.7 45.3-18.7l33.9-33.9c7.2-7.2 17.1-11.3 27.3-11.3s20.1 4.1 27.3 11.3l33.9 33.9c12 12 28.3 18.7 45.3 18.7L512 416c35.3 0 64-28.7 64-64l0-192c0-35.3-28.7-64-64-64zM80 240a64 64 0 1 1 128 0 64 64 0 1 1 -128 0zm352-64a64 64 0 1 1 0 128 64 64 0 1 1 0-128z" fill="currentColor"></path></svg>