<svg xmlns="http://www.w3.org/2000/svg" data-fa-i2svg="" aria-hidden="true" viewBox="0 0 512 512" data-icon="cube" data-prefix="fas" class="svg-inline--fa fa-cube duration-300 group-hover:text-dark text-2xl text-primary transition-all"><path d="M224.3-2.5c19.8-11.4 44.2-11.4 64 0L464.2 99c19.8 11.4 32 32.6 32 55.4l0 203c0 22.9-12.2 44-32 55.4L288.3 514.5c-19.8 11.4-44.2 11.4-64 0L48.5 413c-19.8-11.4-32-32.6-32-55.4l0-203c0-22.9 12.2-44 32-55.4L224.3-2.5zm207.8 360l0-166.1-143.8 83 0 166.1 143.8-83z" fill="currentColor"></path></svg>